<svg width="141" height="40" viewBox="0 0 141 40" fill="none" xmlns="http://www.w3.org/2000/svg"><g clip-path="url(#clip0_8878_6448)"><path d="M136.175 0H4.82471C2.16009 0 0 2.16354 0 4.83242V35.1676C0 37.8365 2.16009 40 4.82471 40H136.175C138.84 40 140.982 37.8365 141 35.1676V4.83242C140.982 2.16354 138.84 0 136.175 0Z" fill="url(#paint0_linear_8878_6448)"/><path d="M76.8756 32.7721H70.5152C69.8163 29.8685 68.2187 27.9576 66.2653 26.8268L64.4375 32.7721H57.7656L64.5147 10.8274C65.1722 8.68871 67.1476 7.22932 69.3835 7.22932H76.8756V32.7721ZM89.355 32.7693H86.2589V11.4957C85.2747 12.0424 84.1099 12.2978 82.9078 12.2978V9.37906C84.7288 9.37906 86.3692 8.13781 86.9151 7.22656H89.3564V32.7693H89.355ZM104.102 26.7481C104.102 30.9813 101.406 33.207 98.0905 33.207C94.7752 33.207 92.0431 30.9813 92.0431 26.7481V13.2105C92.0431 8.97728 94.7752 6.78888 98.0905 6.78888C101.406 6.78888 104.102 8.97866 104.102 13.2105V26.7481ZM118.551 26.7481C118.551 30.9813 115.855 33.207 112.54 33.207C109.225 33.207 106.492 30.9813 106.492 26.7481V13.2105C106.492 8.97728 109.225 6.78888 112.54 6.78888C115.855 6.78888 118.551 8.97866 118.551 13.2105V26.7481ZM132.999 26.7481C132.999 30.9813 130.303 33.207 126.988 33.207C123.672 33.207 120.94 30.9813 120.94 26.7481V13.2105C120.94 8.97728 123.672 6.78888 126.988 6.78888C130.303 6.78888 132.999 8.97866 132.999 13.2105V26.7481ZM98.0919 9.70766C96.3798 9.70766 95.1405 10.9116 95.1405 13.2837V26.675C95.1405 29.047 96.3798 30.251 98.0919 30.251C99.8039 30.251 101.006 29.047 101.006 26.675V13.2837C101.006 10.9116 99.7667 9.70766 98.0919 9.70766ZM112.54 9.70766C110.828 9.70766 109.588 10.9116 109.588 13.2837V26.675C109.588 29.047 110.828 30.251 112.54 30.251C114.252 30.251 115.454 29.047 115.454 26.675V13.2837C115.454 10.9116 114.215 9.70766 112.54 9.70766ZM70.5152 26.0343V13.0103L66.8719 24.8566C68.0064 25.0168 69.2925 25.3854 70.5152 26.0343ZM32.7736 32.7721H25.2829V13.0144L20.3121 29.1754C19.6532 31.3141 17.6792 32.7735 15.4419 32.7735H7.95117V7.22932H14.3115V26.9884L19.2823 10.8274C19.9413 8.68871 21.9153 7.22932 24.1525 7.22932H31.6432V26.9884L37.7196 7.22932H44.3929L37.6438 29.174C36.9849 31.3127 35.0109 32.7721 32.7736 32.7721ZM50.3672 32.7721H43.9187L49.9964 13.013H44.6782L46.4578 7.22932H63.5663L61.788 13.013H56.4436L50.3659 32.7721H50.3672ZM126.988 9.70766C125.276 9.70766 124.036 10.9116 124.036 13.2837V26.675C124.036 29.047 125.276 30.251 126.988 30.251C128.7 30.251 129.902 29.047 129.902 26.675V13.2837C129.902 10.9116 128.663 9.70766 126.988 9.70766Z" fill="#FAFAF5"/></g><defs><linearGradient id="paint0_linear_8878_6448" x1="0.28121" y1="40.0511" x2="141.503" y2="-0.146162" gradientUnits="userSpaceOnUse"><stop stop-color="#A16C07"/><stop offset="0.75" stop-color="#BA8915"/></linearGradient><clipPath id="clip0_8878_6448"><rect width="141" height="40" fill="white"/></clipPath></defs></svg>