<svg width="132" height="40" viewBox="0 0 132 40" fill="none" xmlns="http://www.w3.org/2000/svg"><g clip-path="url(#clip0_8878_6417)"><path d="M127.153 40H4.84658C2.16988 40 0 37.8365 0 35.1676V4.83242C0 2.16354 2.16988 0 4.84658 0H127.153C129.83 0 131.982 2.16354 132 4.83242V35.1676C131.982 37.8365 129.83 40 127.153 40Z" fill="url(#paint0_linear_8878_6417)"/><path d="M69.6979 7.22931C67.4519 7.22931 65.4675 8.6887 64.807 10.8274L58.0273 32.7721H64.7295L66.5656 26.8268C68.5278 27.9576 70.1327 29.8685 70.8348 32.7721H77.2239V7.22931H69.6979ZM67.1735 24.8566L70.8334 13.0103V26.0343C69.6051 25.3854 68.3132 25.0154 67.1735 24.8566Z" fill="#FAFAF5"/><path d="M37.8907 7.22931L31.7868 26.9884V7.22931H24.2621C22.0147 7.22931 20.0317 8.6887 19.3698 10.8274L14.3765 26.9884V7.22931H7.9873V32.7721H15.512C17.7594 32.7721 19.7423 31.3127 20.4042 29.174L25.3976 13.013V32.7721H32.9223C35.1697 32.7721 37.1526 31.3127 37.8145 29.174L44.5942 7.22931H37.8907Z" fill="#FAFAF5"/><path d="M63.8543 7.22931H46.6684L44.8807 13.0144H50.223L44.1177 32.7721H50.5955L56.7008 13.0144H62.068L63.8543 7.22931Z" fill="#FAFAF5"/><path d="M89.8738 19.0508C91.1907 17.3718 93.0573 15.2552 93.0573 12.7023V12.2647C93.0573 10.5498 91.9592 9.71038 90.5316 9.71038C88.9585 9.71038 87.823 10.768 87.6402 14.6726L84.7129 14.4531C84.8957 9.27132 86.7623 6.79022 90.5689 6.79022C93.9726 6.79022 96.2048 8.72457 96.2048 12.1901V13.1759C96.2048 16.6787 93.8632 19.3421 91.8138 21.7514C90.094 23.868 88.3367 26.3132 88.154 29.8519H96.2048V32.7707H84.8597V30.1432C84.8597 25.4365 87.787 21.5678 89.8738 19.0508Z" fill="#FAFAF5"/><path d="M97.8511 25.9832L100.778 25.7278C100.961 29.1574 101.839 30.2896 103.596 30.2896C105.354 30.2896 106.45 29.3411 106.45 27.0422V22.8463C106.45 20.4743 105.426 19.5616 103.962 19.5616C102.864 19.5616 101.73 20.0725 101.144 21.8246L98.2526 21.496L98.9852 7.22931H109.049V10.1481H101.767L101.364 17.8468C102.315 17.0805 103.523 16.6788 104.768 16.6788C107.769 16.6788 109.599 18.9776 109.599 22.2982V27.0781C109.599 31.0918 107.073 33.2084 103.56 33.2084C100.047 33.2084 98.0339 30.8364 97.8511 25.9832Z" fill="#FAFAF5"/><path d="M111.883 26.7495V13.2118C111.883 8.97862 114.627 6.79022 117.958 6.79022C121.288 6.79022 123.996 8.98 123.996 13.2118V26.7495C123.996 30.9827 121.288 33.2084 117.958 33.2084C114.627 33.2084 111.883 30.9827 111.883 26.7495ZM120.885 26.6763V13.285C120.885 10.913 119.64 9.709 117.958 9.709C116.275 9.709 114.993 10.913 114.993 13.285V26.6763C114.993 29.0483 116.238 30.2523 117.958 30.2523C119.678 30.2523 120.885 29.0483 120.885 26.6763Z" fill="#FAFAF5"/></g><defs><linearGradient id="paint0_linear_8878_6417" x1="0.182785" y1="39.5002" x2="131.959" y2="0.227135" gradientUnits="userSpaceOnUse"><stop stop-color="#7A4FB1"/><stop offset="0.72" stop-color="#8665CE"/></linearGradient><clipPath id="clip0_8878_6417"><rect width="132" height="40" fill="white"/></clipPath></defs></svg>