<svg width="133" height="40" viewBox="0 0 133 40" fill="none" xmlns="http://www.w3.org/2000/svg"><g clip-path="url(#clip0_8878_6438)"><path d="M128.159 40H4.83029C2.16259 40 0 37.8365 0 35.1676V4.83242C0 2.16354 2.16259 0 4.83029 0H128.159C130.826 0 132.971 2.16354 132.989 4.83242V35.1676C132.971 37.8365 130.826 40 128.159 40Z" fill="url(#paint0_linear_8878_6438)"/><path d="M64.5894 10.8288L57.8325 32.7735H64.5121L66.3421 26.8282C68.2977 27.959 69.8972 29.8699 70.5969 32.7735H76.9646V7.22931H69.4639C67.2254 7.22931 65.2477 8.6887 64.5894 10.8274V10.8288ZM70.5969 26.0343C69.3728 25.3854 68.0852 25.0154 66.9493 24.8566L70.5969 13.0103V26.0343Z" fill="#FAFAF5"/><path d="M37.7633 7.22931L31.6799 26.9884V7.22931H24.1806C21.9407 7.22931 19.9644 8.6887 19.3047 10.8274L14.3282 26.9884V7.22931H7.96045V32.7721H15.4598C17.6997 32.7721 19.676 31.3127 20.3357 29.174L25.3122 13.013V32.7721H32.8116C35.0515 32.7721 37.0278 31.3127 37.6874 29.174L44.4443 7.22931H37.7633Z" fill="#FAFAF5"/><path d="M63.6401 7.22931H46.5118L44.7301 13.0144H50.0545L43.9697 32.7721H50.4258L56.5105 13.0144H61.8597L63.6401 7.22931Z" fill="#FAFAF5"/><path d="M91.4033 16.6774C90.1626 16.6774 88.9592 17.0792 88.011 17.8455L88.4126 10.1467H95.6705V7.22797H85.6401L84.91 21.4946L87.7916 21.8233C88.3754 20.0712 89.5057 19.5603 90.6001 19.5603C92.0588 19.5603 93.0801 20.4729 93.0801 22.845V27.0409C93.0801 29.3397 92.0229 30.2883 90.2357 30.2883C88.4485 30.2883 87.6094 29.1575 87.4273 25.7265L84.5098 25.9819C84.6919 30.835 86.5523 33.2071 90.1999 33.2071C93.8474 33.2071 96.2184 31.0905 96.2184 27.0768V22.2968C96.2184 18.9763 94.3953 16.6774 91.4033 16.6774Z" fill="#FAFAF5"/><path d="M104.549 6.78888C101.229 6.78888 98.4941 8.97866 98.4941 13.2105V26.7481C98.4941 30.9813 101.229 33.207 104.549 33.207C107.868 33.207 110.567 30.9813 110.567 26.7481V13.2105C110.567 8.97728 107.868 6.78888 104.549 6.78888ZM107.466 26.675C107.466 29.047 106.225 30.251 104.549 30.251C102.872 30.251 101.594 29.047 101.594 26.675V13.2837C101.594 10.9116 102.834 9.70766 104.549 9.70766C106.263 9.70766 107.466 10.9116 107.466 13.2837V26.675Z" fill="#FAFAF5"/><path d="M119.013 6.78888C115.694 6.78888 112.958 8.97866 112.958 13.2105V26.7481C112.958 30.9813 115.694 33.207 119.013 33.207C122.332 33.207 125.031 30.9813 125.031 26.7481V13.2105C125.031 8.97728 122.332 6.78888 119.013 6.78888ZM121.93 26.675C121.93 29.047 120.69 30.251 119.013 30.251C117.336 30.251 116.058 29.047 116.058 26.675V13.2837C116.058 10.9116 117.299 9.70766 119.013 9.70766C120.727 9.70766 121.93 10.9116 121.93 13.2837V26.675Z" fill="#FAFAF5"/></g><defs><linearGradient id="paint0_linear_8878_6438" x1="-0.0828042" y1="39.6314" x2="133.194" y2="0.367341" gradientUnits="userSpaceOnUse"><stop stop-color="#557575"/><stop offset="0.75" stop-color="#699694"/></linearGradient><clipPath id="clip0_8878_6438"><rect width="133" height="40" fill="white"/></clipPath></defs></svg>