<?xml version="1.0" standalone="no"?><!DOCTYPE svg PUBLIC "-//W3C//DTD SVG 1.1//EN" "http://www.w3.org/Graphics/SVG/1.1/DTD/svg11.dtd"><svg t="1746774419964" class="icon" viewBox="0 0 1025 1024" version="1.1" xmlns="http://www.w3.org/2000/svg" p-id="7471" xmlns:xlink="http://www.w3.org/1999/xlink" width="256.25" height="256"><path d="M511.902437 511.902437m-511.902437 0a511.902437 511.902437 0 1 0 1023.804875 0 511.902437 511.902437 0 1 0-1023.804875 0Z" fill="#C3D259" p-id="7472"></path><path d="M499.857674 1023.804875c283.051936 7.743062 517.924819-215.945398 524.807541-498.997334S808.719817 7.743062 526.528221 0h-26.670547S731.289196 192.716212 731.289196 509.321417c0 366.504938-231.431522 514.483458-231.431522 514.483458z" fill="#A3BB2F" p-id="7473"></path><path d="M92.916745 209.923016c49.039393-6.022382 98.939127-4.301701 147.97852 6.882722 94.637425 22.368846 166.906005 77.430621 214.224717 165.185325 57.642795 105.821848 18.067145 232.291862-17.206804 344.136092-11.184423 35.273949-21.508506 68.827218-29.251568 99.799467-14.625784 59.363476-25.810207 119.587292-34.41361 179.811108l-59.363475-18.067145c7.743062-59.363476 18.927485-117.866612 32.692928-176.369747 7.743062-33.553269 18.927485-67.966878 30.111908-104.961508 33.553269-104.961508 67.106538-213.364377 22.368846-295.0967-24.949867-45.598032-123.888993-188.414511-353.599835-129.911374zM1016.922153 597.936461c-61.084156-61.944497-123.888993-93.777085-184.112809-125.609674-75.70994-38.71531-147.118179-76.570281-193.576552-163.464644-72.268579-135.073416-36.99463-242.615945-7.743062-297.67772l60.223816 21.508506c-29.251568 53.341094-53.341094 141.956138 1.72068 246.057306 37.85497 70.547899 95.497766 100.659807 167.766345 138.514777 61.084156 31.832589 92.916745 36.13429 160.883623 104.961508z" fill="#FBFBF9" p-id="7474"></path><path d="M693.434226 278.750235C638.372451 174.649067 662.461978 86.034023 690.853205 32.692929l-29.251567-10.324083c-10.324083-3.441361-21.508506-6.022382-31.832589-8.603402-12.905103 24.089526-25.810207 57.642795-30.972248 98.078786 49.899733 69.687559 104.101168 170.347366 124.749333 295.096699 33.553269 25.810207 71.408239 45.598032 110.12355 65.385858 60.223816 30.972248 123.028653 63.665177 184.112809 125.609674l6.022382-75.709941c-67.966878-68.827218-99.799467-73.12892-160.883623-104.961508-73.98926-37.85497-131.632055-67.966878-169.487026-138.514777z" fill="#D2E0A3" p-id="7475"></path></svg>