<?xml version="1.0" standalone="no"?><!DOCTYPE svg PUBLIC "-//W3C//DTD SVG 1.1//EN" "http://www.w3.org/Graphics/SVG/1.1/DTD/svg11.dtd"><svg t="1746773019617" class="icon" viewBox="0 0 1024 1024" version="1.1" xmlns="http://www.w3.org/2000/svg" p-id="6905" xmlns:xlink="http://www.w3.org/1999/xlink" width="256" height="256"><path d="M546.179094 631.162762c-31.136936 0-60.887639-7.677601-87.332708-22.926169-49.371238-28.577736-81.467875-79.975008-90.211809-144.914714-8.637301-63.980006 6.504634-133.504946 42.440071-195.77882l9.063834 5.225034-9.063834-5.225034c35.935437-62.273873 88.612309-110.152244 148.326981-134.677913 60.567739-24.952202 121.242112-22.926169 170.61335 5.651568s81.467875 79.975008 90.211809 144.914714c8.637301 63.980006-6.504634 133.504946-42.440071 195.778819s-88.612309 110.152244-148.326981 134.677913c-28.044569 11.409768-56.195772 17.274602-83.280642 17.274602z m96.503176-494.778715c-24.312402 0-49.797772 5.225034-75.28314 15.675101-55.449339 22.819536-104.500677 67.498907-138.196814 125.827346s-47.878371 123.161512-39.88087 182.556284c7.890867 58.435072 36.255337 104.394044 79.975007 129.666146 43.719671 25.272102 97.782776 26.764969 152.272415 4.371967 55.449339-22.819536 104.500677-67.498907 138.196814-125.827345 33.696137-58.328439 47.878371-123.161512 39.88087-182.556285-7.890867-58.435072-36.255337-104.394044-79.975007-129.666146-23.246069-13.329168-49.371238-20.047069-76.989275-20.047068z" p-id="6906" fill="#6b6b6b"></path><path d="M403.18378 799.536811l-83.174008-49.157971 4.371967-8.743934c26.125169-51.610538 36.255337-108.126211 28.471103-159.096949-1.9194-12.689368-5.011767-25.058836-9.063834-36.575237l-5.331667-14.822035h0.3199c-1.2796-3.732167-2.5592-7.570967-3.412267-10.556701-12.049568-40.840571-14.928668-86.906175-8.317401-133.29168 6.931167-48.411538 23.459336-95.543476 49.157971-140.116213 42.653337-73.790274 105.140477-130.305946 176.051651-159.096949 71.870874-29.217536 143.741747-26.551703 202.49672 7.357701 58.754972 33.909403 96.929709 94.903676 107.593043 171.679683 10.556701 75.816307-7.144434 158.243882-49.797771 232.034156-28.684369 49.691138-67.28564 92.451109-111.645111 123.694679-43.079871 30.28387-90.425075 49.051338-137.023847 54.063105-59.608039 12.582735-116.230345 54.276372-155.258148 114.310945l-5.438301 8.3174z m-55.769238-57.155472l49.371238 29.217536c41.906904-60.354473 101.08841-102.154743 163.575549-115.057378l1.066333-0.106633c89.785275-9.597001 179.144017-73.683641 233.313757-167.520983 82.640841-143.208581 60.141206-311.58263-50.224305-375.242737-52.996772-30.60377-118.469645-32.736437-184.262418-6.0781C493.608856 134.464646 434.640617 187.887952 394.439846 257.626158c-24.312402 42.226804-39.987504 86.799542-46.598771 132.65188-6.184734 43.506404-3.5189 86.479642 7.677601 124.441112 1.386233 4.691867 3.945434 12.049568 5.7582 17.487869 0.6398 2.026034 1.2796 3.732167 1.706134 5.011767 0.213267 0.6398 0.426533 1.386233 0.6398 2.132667 4.4786 12.689368 7.784234 26.125169 9.916901 40.094137 7.997501 52.356972-1.2796 109.832344-26.125169 162.935749z" p-id="6907" fill="#6b6b6b"></path><path d="M386.122445 743.874206c-1.812767 0-3.5189-0.426533-5.225034-1.386233-4.7985-2.772467-6.611267-8.850568-4.052067-13.755702 22.073102-43.399771 26.551703-85.626575 14.075602-132.971779-1.2796-4.7985 0.9597-9.703634 5.331667-11.942935 4.371967-2.2393 9.703634-1.066333 12.796001 2.665834 11.623034 14.288868 25.378736 26.018536 41.053838 35.08237 16.208268 9.383734 33.909403 15.461835 52.890138 18.340935 4.905134 0.746433 8.637301 4.7985 8.850568 9.703634 0.3199 4.905134-2.985734 9.383734-7.784235 10.663334-47.665105 12.582735-82.427575 37.64157-109.192543 78.908675-2.026034 2.985734-5.331667 4.691867-8.743935 4.691867z m31.350203-119.642612c2.2393 20.260335 1.386233 39.880871-2.5592 59.288139 14.928668-13.222535 31.56347-23.779236 50.224305-31.883369-8.850568-3.305634-17.381235-7.251067-25.592002-12.049568-7.784234-4.4786-15.141935-9.597001-22.073103-15.355202zM263.707367 1024c-3.625534 0-7.144434-0.9597-10.343435-2.772467l-49.477871-28.577736c-4.7985-2.772467-8.210767-7.251067-9.703634-12.582735-1.386233-5.331667-0.746433-10.983234 2.026033-15.781734l133.93148-231.927523 85.413308 49.264605-133.824846 231.927522c-2.772467 4.7985-7.251067 8.210767-12.582735 9.703635-1.812767 0.426533-3.625534 0.746433-5.4383 0.746433zM214.442762 974.628762l49.264605 28.471103 123.481412-213.799855-49.264605-28.471102L214.442762 974.628762z" p-id="6908" fill="#6b6b6b"></path><path d="M310.306138 790.281037l5.225034-9.049972 65.103921 37.588254-5.225033 9.048906z m249.637188-639.104813l5.225034-9.049972 248.591115 143.528481-5.225033 9.049972z m-61.816415 38.940365l5.225033-9.049972 304.182277 175.625117-5.225034 9.049972z m-47.577666 47.311082l5.225034-9.049972 333.640804 192.633135-5.225034 9.049972z m-32.389878 55.971842l5.225034-9.049972 333.640804 192.633135-5.225034 9.049972z m-24.706946 60.504825l5.225034-9.049972 325.975999 188.207852-5.225033 9.049972z m-22.028316 61.979565l5.225034-9.049972 297.719229 171.89295-5.225033 9.049972z" p-id="6909" fill="#6b6b6b"></path><path d="M379.541035 485.332067l204.469437-354.139998 9.048906 5.225034-204.469437 354.139998z m33.521258 68.382897l243.603874-421.921483 9.048906 5.225034L422.111199 558.939998z m47.830387 43.604507l257.679475-446.301064 9.049972 5.225034-257.679476 446.301064z m61.614878 19.620535l244.563574-423.584963 9.049972 5.225034-244.563574 423.584963z m77.578957-7.885536l199.351036-345.275568 9.049972 5.225034-199.351036 345.275568zM858.294891 930.375924c-7.037801 0-14.182235-0.9597-21.220035-2.8791-20.793502-5.651567-38.068104-18.980735-48.731438-37.64157-22.073102-38.494637-8.743934-87.759242 29.750703-109.832344 38.494637-22.073102 87.759242-8.743934 109.832344 29.750702 22.073102 38.494637 8.743934 87.759242-29.750703 109.832344-12.262835 7.144434-26.018536 10.769968-39.880871 10.769968z m-0.213266-140.116213c-10.023534 0-20.260335 2.5592-29.537436 7.890867-28.471103 16.314902-38.388004 52.890138-22.073103 81.361241 7.890867 13.862335 20.793502 23.672602 36.148704 27.937936 15.355201 4.1587 31.456836 2.132667 45.212538-5.864834 13.862335-7.890867 23.672602-20.793502 27.937936-36.148703 4.1587-15.355201 2.132667-31.456836-5.864834-45.212538-10.983234-19.194002-31.136936-29.96397-51.823805-29.963969z" p-id="6910" fill="#6b6b6b"></path><path d="M857.228558 892.734354c-15.461835 0-30.497136-7.997501-38.707904-22.393002l9.063834-5.225034c9.383734 16.314902 30.28387 21.966469 46.598772 12.582734 16.314902-9.383734 21.966469-30.28387 12.582734-46.598771l9.063834-5.225034c12.262835 21.326669 4.7985 48.518171-16.528168 60.781006-6.931167 4.1587-14.502135 6.078101-22.073102 6.078101z" p-id="6911" fill="#6b6b6b"></path><path d="M818.520654 870.341352c-6.504634-11.303134-19.087369-17.914402-31.990003-17.061335l-0.746433-10.450068c16.954702-1.172967 33.376237 7.570967 41.80027 22.286369l-9.063834 5.225034z" p-id="6912" fill="#6b6b6b"></path><path d="M857.228558 892.734354c-15.461835 0-30.497136-7.997501-38.707904-22.393002l9.063834-5.225034c9.383734 16.314902 30.28387 21.966469 46.598772 12.582734 7.890867-4.4786 13.542435-11.836301 15.995001-20.686868 2.345934-8.743934 1.172967-18.021035-3.305633-25.911903-5.864834-10.236801-16.421535-16.634802-28.257837-17.167968h-0.106633c-14.715401-0.9597-28.044569-9.490368-35.72217-22.819536l9.063834-5.225034c5.758201 10.023534 16.208268 16.848068 27.298136 17.594502 15.355201 0.6398 29.217536 8.957201 36.788504 22.393002 5.864834 10.343434 7.464334 22.286369 4.371967 33.80277-3.092367 11.516401-10.556701 21.113402-20.793502 26.978236-7.144434 4.1587-14.715401 6.078101-22.286369 6.078101zM788.556685 727.239404c-3.625534 0-7.144434-1.9194-9.063835-5.225033l-44.359471-77.629075c-2.8791-5.011767-1.172967-11.409768 3.838801-14.182234 5.011767-2.8791 11.409768-1.172967 14.182234 3.8388l44.359471 77.629074c2.8791 5.011767 1.172967 11.409768-3.8388 14.182235-1.5995 0.853067-3.412267 1.386233-5.1184 1.386233zM841.02029 740.035406c-3.625534 0-7.144434-1.9194-9.063834-5.225034l-22.179736-38.814537c-2.8791-5.011767-1.172967-11.409768 3.8388-14.182235 5.011767-2.8791 11.409768-1.172967 14.182235 3.8388l22.179736 38.814537c2.8791 5.011767 1.172967 11.409768-3.838801 14.182235-1.492867 0.9597-3.305634 1.386233-5.1184 1.386234z" p-id="6913" fill="#6b6b6b"></path></svg>