<?xml version="1.0" standalone="no"?><!DOCTYPE svg PUBLIC "-//W3C//DTD SVG 1.1//EN" "http://www.w3.org/Graphics/SVG/1.1/DTD/svg11.dtd"><svg t="1746692775172" class="icon" viewBox="0 0 1024 1024" version="1.1" xmlns="http://www.w3.org/2000/svg" p-id="18448" xmlns:xlink="http://www.w3.org/1999/xlink" width="256" height="256"><path d="M512 987.428571C248.685714 987.428571 36.571429 775.314286 36.571429 512S248.685714 36.571429 512 36.571429s475.428571 212.114286 475.428571 475.428571-212.114286 475.428571-475.428571 475.428571z m0-877.714285C292.571429 109.714286 109.714286 292.571429 109.714286 512S292.571429 914.285714 512 914.285714 914.285714 731.428571 914.285714 512 731.428571 109.714286 512 109.714286z" fill="#333333" p-id="18449"></path><path d="M680.228571 950.857143c-14.628571 0-29.257143-7.314286-36.571428-21.942857-21.942857-51.2-29.257143-102.4-29.257143-160.914286 0-197.485714 124.342857-373.028571 299.885714-424.228571 14.628571-7.314286 36.571429 7.314286 43.885715 21.942857 7.314286 21.942857-7.314286 36.571429-21.942858 43.885714-146.285714 43.885714-248.685714 190.171429-248.685714 351.085714 0 43.885714 7.314286 95.085714 21.942857 138.971429 7.314286 21.942857 0 36.571429-21.942857 43.885714 0 7.314286-7.314286 7.314286-7.314286 7.314286zM234.057143 877.714286c-14.628571 0-29.257143-7.314286-29.257143-21.942857-7.314286-14.628571 0-36.571429 14.628571-51.2 117.028571-58.514286 197.485714-190.171429 197.485715-336.457143 0-124.342857-58.514286-234.057143-146.285715-307.2-21.942857 0-29.257143-21.942857-14.628571-43.885715 14.628571-14.628571 36.571429-14.628571 51.2-7.314285 109.714286 80.457143 175.542857 219.428571 175.542857 365.714285 0 168.228571-95.085714 329.142857-234.057143 402.285715h-14.628571z" fill="#333333" p-id="18450"></path></svg>